<svg width="38" height="48" viewBox="0 0 38 48" fill="none" xmlns="http://www.w3.org/2000/svg">
<path fill-rule="evenodd" clip-rule="evenodd" d="M0.721346 36.1979C0.282079 36.4002 0 36.8444 0 37.3338V46.7525C0 47.4415 0.550579 48 1.22975 48H36.7703C37.4494 48 38 47.4415 38 46.7525V19.3799C38 18.6909 37.4494 18.1323 36.7703 18.1323H32.7688C32.0896 18.1323 31.539 18.6909 31.539 19.3799V25.5135C31.539 26.0029 31.2569 26.4471 30.8177 26.6495L0.721346 36.1979Z" fill="#FF4E9F" fill-opacity="0.4"/>
<path fill-rule="evenodd" clip-rule="evenodd" d="M37.3062 12.2857C37.7142 12.0713 37.9705 11.644 37.9705 11.1779L37.9705 1.24754C37.9705 0.558542 37.4199 3.76587e-06 36.7407 3.70563e-06L1.45996 2.48404e-06C0.780792 2.42381e-06 3.47174e-06 0.558541 3.4798e-06 1.24753L3.8001e-06 28.62C3.80816e-06 29.309 0.780792 29.8675 1.45996 29.8675L5.46146 29.8675C6.14064 29.8675 6.69121 29.309 6.69121 28.62L6.69121 24.3427C6.69121 23.8765 6.94743 23.4492 7.3555 23.2349L37.3062 12.2857Z" fill="#FF4E9F"/>
</svg>
