<svg width="171" height="53" viewBox="0 0 171 53" fill="none" xmlns="http://www.w3.org/2000/svg">
<path fill-rule="evenodd" clip-rule="evenodd" d="M0.721346 38.6979C0.282079 38.9002 0 39.3444 0 39.8338V49.2525C0 49.9415 0.550579 50.5 1.22975 50.5H36.7703C37.4494 50.5 38 49.9415 38 49.2525V21.8799C38 21.1909 37.4494 20.6323 36.7703 20.6323H32.7688C32.0896 20.6323 31.539 21.1909 31.539 21.8799V28.0135C31.539 28.5029 31.2569 28.9471 30.8177 29.1495L0.721346 38.6979Z" fill="#FF4E9F" fill-opacity="0.4"/>
<path fill-rule="evenodd" clip-rule="evenodd" d="M37.3062 14.7859C37.7142 14.5715 37.9705 14.1442 37.9705 13.678L37.9705 3.74772C37.9705 3.05873 37.4199 2.50019 36.7407 2.50019L1.45996 2.50019C0.780792 2.50019 3.47174e-06 3.05872 3.4798e-06 3.74772L3.8001e-06 31.1201C3.80816e-06 31.8091 0.780792 32.3677 1.45996 32.3677L5.46146 32.3677C6.14064 32.3677 6.69121 31.8091 6.69121 31.1201L6.69121 26.8429C6.69121 26.3767 6.94743 25.9494 7.3555 25.7351L37.3062 14.7859Z" fill="#FF4E9F"/>
<path d="M51.32 11.504C51.32 10.4907 51.5067 9.576 51.88 8.76C52.2533 7.944 52.7867 7.248 53.48 6.672C54.1787 6.096 55.0213 5.65333 56.008 5.344C57 5.03467 58.1147 4.88 59.352 4.88C60.6587 4.88 61.8293 5.056 62.864 5.408C63.8987 5.75467 64.776 6.256 65.496 6.912C66.216 7.568 66.768 8.37067 67.152 9.32C67.536 10.264 67.728 11.336 67.728 12.536V23H64.488V18.256C64.2747 19.0667 63.9493 19.7947 63.512 20.44C63.08 21.0853 62.552 21.6347 61.928 22.088C61.3093 22.536 60.6027 22.88 59.808 23.12C59.0133 23.36 58.152 23.48 57.224 23.48C56.2587 23.48 55.3813 23.352 54.592 23.096C53.8027 22.84 53.1253 22.48 52.56 22.016C52 21.552 51.5653 20.9947 51.256 20.344C50.952 19.688 50.8 18.96 50.8 18.16C50.8 17.3547 50.9573 16.6293 51.272 15.984C51.592 15.3387 52.048 14.792 52.64 14.344C53.2373 13.8907 53.96 13.544 54.808 13.304C55.6613 13.064 56.6187 12.944 57.68 12.944H64.488V12.536C64.488 11.8107 64.3653 11.1573 64.12 10.576C63.88 9.98933 63.536 9.49333 63.088 9.088C62.64 8.67733 62.096 8.36267 61.456 8.144C60.816 7.92533 60.096 7.816 59.296 7.816C58.48 7.816 57.7733 7.904 57.176 8.08C56.584 8.256 56.0933 8.50667 55.704 8.832C55.32 9.152 55.032 9.53867 54.84 9.992C54.6533 10.4453 54.56 10.9493 54.56 11.504H51.32ZM57.648 15.664C56.448 15.664 55.5387 15.8667 54.92 16.272C54.3067 16.672 54 17.2667 54 18.056C54 18.472 54.088 18.8427 54.264 19.168C54.4453 19.4933 54.7093 19.7653 55.056 19.984C55.4027 20.2027 55.8293 20.3707 56.336 20.488C56.848 20.6 57.4347 20.656 58.096 20.656C59.0347 20.656 59.8933 20.5467 60.672 20.328C61.456 20.104 62.1307 19.7947 62.696 19.4C63.2613 19 63.7013 18.5253 64.016 17.976C64.3307 17.4213 64.488 16.8133 64.488 16.152V15.664H57.648ZM73.4575 23H70.2175V5.36H73.4575V10.992C73.6655 10.112 73.9615 9.32533 74.3455 8.632C74.7348 7.93333 75.2148 7.34133 75.7855 6.856C76.3562 6.37067 77.0148 6 77.7615 5.744C78.5135 5.488 79.3562 5.36 80.2895 5.36H81.0975V8.448H80.2975C79.0068 8.448 77.9242 8.568 77.0495 8.808C76.1748 9.04267 75.4708 9.4 74.9375 9.88C74.4095 10.36 74.0308 10.9653 73.8015 11.696C73.5722 12.4213 73.4575 13.2747 73.4575 14.256V23ZM85.3388 14.176C85.3388 15.1627 85.4614 16.0507 85.7068 16.84C85.9574 17.624 86.3148 18.2933 86.7788 18.848C87.2481 19.3973 87.8161 19.8187 88.4828 20.112C89.1494 20.4053 89.8987 20.552 90.7308 20.552C91.4614 20.552 92.1068 20.4427 92.6668 20.224C93.2268 20.0053 93.7094 19.7067 94.1148 19.328C94.5201 18.944 94.8481 18.4987 95.0988 17.992C95.3494 17.48 95.5281 16.9333 95.6348 16.352H98.8748C98.7894 17.0187 98.6374 17.6587 98.4188 18.272C98.2001 18.8853 97.9201 19.456 97.5788 19.984C97.2374 20.512 96.8348 20.992 96.3708 21.424C95.9121 21.8507 95.3948 22.2187 94.8188 22.528C94.2428 22.832 93.6134 23.0667 92.9308 23.232C92.2481 23.3973 91.5121 23.48 90.7228 23.48C89.8641 23.48 89.0534 23.3787 88.2908 23.176C87.5281 22.9787 86.8268 22.6907 86.1868 22.312C85.5521 21.928 84.9814 21.464 84.4748 20.92C83.9681 20.376 83.5388 19.76 83.1868 19.072C82.8348 18.3787 82.5654 17.6213 82.3788 16.8C82.1921 15.9787 82.0988 15.104 82.0988 14.176C82.0988 13.248 82.1921 12.3733 82.3788 11.552C82.5654 10.7307 82.8348 9.976 83.1868 9.288C83.5388 8.6 83.9681 7.984 84.4748 7.44C84.9814 6.89067 85.5521 6.42667 86.1868 6.048C86.8268 5.66933 87.5281 5.38133 88.2908 5.184C89.0534 4.98133 89.8641 4.88 90.7228 4.88C91.5121 4.88 92.2481 4.96267 92.9308 5.128C93.6188 5.29333 94.2508 5.53067 94.8268 5.84C95.4028 6.144 95.9201 6.512 96.3788 6.944C96.8428 7.37067 97.2428 7.848 97.5788 8.376C97.9201 8.904 98.2001 9.47467 98.4188 10.088C98.6374 10.7013 98.7894 11.3413 98.8748 12.008H95.6348C95.5281 11.4267 95.3494 10.8827 95.0988 10.376C94.8534 9.864 94.5281 9.41867 94.1228 9.04C93.7174 8.656 93.2321 8.35467 92.6668 8.136C92.1068 7.91733 91.4614 7.808 90.7308 7.808C89.8987 7.808 89.1494 7.95467 88.4828 8.248C87.8161 8.54133 87.2481 8.96267 86.7788 9.512C86.3148 10.0613 85.9574 10.7307 85.7068 11.52C85.4614 12.304 85.3388 13.1893 85.3388 14.176ZM100.82 11.504C100.82 10.4907 101.007 9.576 101.38 8.76C101.753 7.944 102.287 7.248 102.98 6.672C103.679 6.096 104.521 5.65333 105.508 5.344C106.5 5.03467 107.615 4.88 108.852 4.88C110.159 4.88 111.329 5.056 112.364 5.408C113.399 5.75467 114.276 6.256 114.996 6.912C115.716 7.568 116.268 8.37067 116.652 9.32C117.036 10.264 117.228 11.336 117.228 12.536V23H113.988V18.256C113.775 19.0667 113.449 19.7947 113.012 20.44C112.58 21.0853 112.052 21.6347 111.428 22.088C110.809 22.536 110.103 22.88 109.308 23.12C108.513 23.36 107.652 23.48 106.724 23.48C105.759 23.48 104.881 23.352 104.092 23.096C103.303 22.84 102.625 22.48 102.06 22.016C101.5 21.552 101.065 20.9947 100.756 20.344C100.452 19.688 100.3 18.96 100.3 18.16C100.3 17.3547 100.457 16.6293 100.772 15.984C101.092 15.3387 101.548 14.792 102.14 14.344C102.737 13.8907 103.46 13.544 104.308 13.304C105.161 13.064 106.119 12.944 107.18 12.944H113.988V12.536C113.988 11.8107 113.865 11.1573 113.62 10.576C113.38 9.98933 113.036 9.49333 112.588 9.088C112.14 8.67733 111.596 8.36267 110.956 8.144C110.316 7.92533 109.596 7.816 108.796 7.816C107.98 7.816 107.273 7.904 106.676 8.08C106.084 8.256 105.593 8.50667 105.204 8.832C104.82 9.152 104.532 9.53867 104.34 9.992C104.153 10.4453 104.06 10.9493 104.06 11.504H100.82ZM107.148 15.664C105.948 15.664 105.039 15.8667 104.42 16.272C103.807 16.672 103.5 17.2667 103.5 18.056C103.5 18.472 103.588 18.8427 103.764 19.168C103.945 19.4933 104.209 19.7653 104.556 19.984C104.903 20.2027 105.329 20.3707 105.836 20.488C106.348 20.6 106.935 20.656 107.596 20.656C108.535 20.656 109.393 20.5467 110.172 20.328C110.956 20.104 111.631 19.7947 112.196 19.4C112.761 19 113.201 18.5253 113.516 17.976C113.831 17.4213 113.988 16.8133 113.988 16.152V15.664H107.148ZM122.957 23H119.718V5.36H122.957V10.456C123.171 9.58667 123.478 8.808 123.878 8.12C124.278 7.432 124.758 6.848 125.318 6.368C125.878 5.888 126.51 5.52 127.214 5.264C127.923 5.008 128.688 4.88 129.51 4.88C130.512 4.88 131.411 5.06933 132.206 5.448C133 5.82667 133.672 6.37333 134.222 7.088C134.776 7.79733 135.198 8.664 135.486 9.688C135.779 10.7067 135.926 11.856 135.926 13.136V23H132.686V13.136C132.686 11.3653 132.31 10.0347 131.558 9.144C130.806 8.25333 129.672 7.808 128.158 7.808C127.342 7.808 126.611 7.936 125.966 8.192C125.326 8.44267 124.782 8.81067 124.334 9.296C123.891 9.776 123.55 10.368 123.31 11.072C123.075 11.7707 122.957 12.5653 122.957 13.456V23ZM138.445 11.504C138.445 10.4907 138.632 9.576 139.005 8.76C139.378 7.944 139.912 7.248 140.605 6.672C141.304 6.096 142.146 5.65333 143.133 5.344C144.125 5.03467 145.24 4.88 146.477 4.88C147.784 4.88 148.954 5.056 149.989 5.408C151.024 5.75467 151.901 6.256 152.621 6.912C153.341 7.568 153.893 8.37067 154.277 9.32C154.661 10.264 154.853 11.336 154.853 12.536V23H151.613V18.256C151.4 19.0667 151.074 19.7947 150.637 20.44C150.205 21.0853 149.677 21.6347 149.053 22.088C148.434 22.536 147.728 22.88 146.933 23.12C146.138 23.36 145.277 23.48 144.349 23.48C143.384 23.48 142.506 23.352 141.717 23.096C140.928 22.84 140.25 22.48 139.685 22.016C139.125 21.552 138.69 20.9947 138.381 20.344C138.077 19.688 137.925 18.96 137.925 18.16C137.925 17.3547 138.082 16.6293 138.397 15.984C138.717 15.3387 139.173 14.792 139.765 14.344C140.362 13.8907 141.085 13.544 141.933 13.304C142.786 13.064 143.744 12.944 144.805 12.944H151.613V12.536C151.613 11.8107 151.49 11.1573 151.245 10.576C151.005 9.98933 150.661 9.49333 150.213 9.088C149.765 8.67733 149.221 8.36267 148.581 8.144C147.941 7.92533 147.221 7.816 146.421 7.816C145.605 7.816 144.898 7.904 144.301 8.08C143.709 8.256 143.218 8.50667 142.829 8.832C142.445 9.152 142.157 9.53867 141.965 9.992C141.778 10.4453 141.685 10.9493 141.685 11.504H138.445ZM144.773 15.664C143.573 15.664 142.664 15.8667 142.045 16.272C141.432 16.672 141.125 17.2667 141.125 18.056C141.125 18.472 141.213 18.8427 141.389 19.168C141.57 19.4933 141.834 19.7653 142.181 19.984C142.528 20.2027 142.954 20.3707 143.461 20.488C143.973 20.6 144.56 20.656 145.221 20.656C146.16 20.656 147.018 20.5467 147.797 20.328C148.581 20.104 149.256 19.7947 149.821 19.4C150.386 19 150.826 18.5253 151.141 17.976C151.456 17.4213 151.613 16.8133 151.613 16.152V15.664H144.773Z" fill="#FF4E9F"/>
<path d="M57.704 29.48C58.728 29.48 59.656 29.608 60.488 29.864C61.32 30.12 62.03 30.486 62.618 30.962C63.21 31.438 63.666 32.018 63.986 32.702C64.306 33.386 64.466 34.156 64.466 35.012H62.006C62.006 34.512 61.9 34.062 61.688 33.662C61.48 33.262 61.186 32.922 60.806 32.642C60.426 32.358 59.97 32.14 59.438 31.988C58.91 31.836 58.326 31.76 57.686 31.76C57.33 31.76 56.974 31.786 56.618 31.838C56.262 31.886 55.92 31.962 55.592 32.066C55.268 32.166 54.966 32.294 54.686 32.45C54.406 32.606 54.164 32.79 53.96 33.002C53.756 33.214 53.594 33.456 53.474 33.728C53.358 33.996 53.3 34.294 53.3 34.622C53.3 35.054 53.404 35.404 53.612 35.672C53.82 35.94 54.116 36.16 54.5 36.332C54.884 36.5 55.35 36.636 55.898 36.74C56.446 36.844 57.06 36.948 57.74 37.052L58.628 37.184C58.992 37.24 59.362 37.3 59.738 37.364C60.118 37.424 60.494 37.498 60.866 37.586C61.238 37.67 61.6 37.774 61.952 37.898C62.304 38.018 62.636 38.162 62.948 38.33C63.264 38.498 63.552 38.698 63.812 38.93C64.076 39.158 64.302 39.424 64.49 39.728C64.678 40.028 64.824 40.372 64.928 40.76C65.036 41.144 65.09 41.58 65.09 42.068C65.09 42.66 65.01 43.204 64.85 43.7C64.69 44.192 64.46 44.634 64.16 45.026C63.864 45.418 63.504 45.76 63.08 46.052C62.656 46.344 62.178 46.588 61.646 46.784C61.114 46.976 60.534 47.12 59.906 47.216C59.278 47.312 58.614 47.36 57.914 47.36C56.762 47.36 55.73 47.234 54.818 46.982C53.906 46.726 53.132 46.356 52.496 45.872C51.864 45.384 51.38 44.788 51.044 44.084C50.708 43.376 50.54 42.572 50.54 41.672H53C53 42.204 53.114 42.682 53.342 43.106C53.57 43.526 53.894 43.884 54.314 44.18C54.738 44.472 55.25 44.696 55.85 44.852C56.454 45.004 57.13 45.08 57.878 45.08C58.306 45.08 58.72 45.054 59.12 45.002C59.524 44.95 59.902 44.87 60.254 44.762C60.606 44.65 60.926 44.512 61.214 44.348C61.506 44.18 61.756 43.984 61.964 43.76C62.172 43.532 62.334 43.274 62.45 42.986C62.566 42.698 62.624 42.376 62.624 42.02C62.624 41.704 62.576 41.43 62.48 41.198C62.388 40.966 62.254 40.766 62.078 40.598C61.902 40.426 61.69 40.282 61.442 40.166C61.194 40.05 60.914 39.952 60.602 39.872C60.29 39.788 59.952 39.716 59.588 39.656C59.224 39.592 58.838 39.528 58.43 39.464L57.314 39.296C56.826 39.22 56.326 39.14 55.814 39.056C55.302 38.968 54.806 38.854 54.326 38.714C53.85 38.574 53.4 38.4 52.976 38.192C52.552 37.984 52.182 37.722 51.866 37.406C51.55 37.086 51.3 36.704 51.116 36.26C50.932 35.812 50.84 35.284 50.84 34.676C50.84 34.104 50.922 33.578 51.086 33.098C51.254 32.618 51.488 32.186 51.788 31.802C52.088 31.418 52.448 31.082 52.868 30.794C53.288 30.502 53.752 30.26 54.26 30.068C54.768 29.872 55.312 29.726 55.892 29.63C56.476 29.53 57.08 29.48 57.704 29.48ZM66.6528 29.84H72.2988C73.1828 29.84 74.0128 29.932 74.7888 30.116C75.5688 30.3 76.2848 30.568 76.9368 30.92C77.5928 31.268 78.1788 31.694 78.6948 32.198C79.2108 32.698 79.6468 33.266 80.0028 33.902C80.3628 34.538 80.6368 35.236 80.8248 35.996C81.0168 36.752 81.1128 37.56 81.1128 38.42C81.1128 39.28 81.0168 40.09 80.8248 40.85C80.6368 41.606 80.3628 42.302 80.0028 42.938C79.6468 43.57 79.2108 44.138 78.6948 44.642C78.1788 45.146 77.5928 45.572 76.9368 45.92C76.2848 46.268 75.5688 46.536 74.7888 46.724C74.0128 46.908 73.1828 47 72.2988 47H66.6528V29.84ZM72.3048 44.66C73.2848 44.66 74.1628 44.518 74.9388 44.234C75.7188 43.946 76.3788 43.534 76.9188 42.998C77.4588 42.462 77.8728 41.808 78.1608 41.036C78.4488 40.264 78.5928 39.392 78.5928 38.42C78.5928 37.448 78.4488 36.576 78.1608 35.804C77.8728 35.032 77.4588 34.378 76.9188 33.842C76.3788 33.306 75.7188 32.896 74.9388 32.612C74.1628 32.324 73.2848 32.18 72.3048 32.18H69.1128V44.66H72.3048ZM87.7653 38.606L97.8933 47H94.0593L85.4853 39.728V47H82.9653V29.84H85.4853V37.646L93.6993 29.84H97.2333L87.7653 38.606ZM104.504 29.84H110.15C111.034 29.84 111.864 29.932 112.64 30.116C113.42 30.3 114.136 30.568 114.788 30.92C115.444 31.268 116.03 31.694 116.546 32.198C117.062 32.698 117.498 33.266 117.854 33.902C118.214 34.538 118.488 35.236 118.676 35.996C118.868 36.752 118.964 37.56 118.964 38.42C118.964 39.28 118.868 40.09 118.676 40.85C118.488 41.606 118.214 42.302 117.854 42.938C117.498 43.57 117.062 44.138 116.546 44.642C116.03 45.146 115.444 45.572 114.788 45.92C114.136 46.268 113.42 46.536 112.64 46.724C111.864 46.908 111.034 47 110.15 47H104.504V29.84ZM110.156 44.66C111.136 44.66 112.014 44.518 112.79 44.234C113.57 43.946 114.23 43.534 114.77 42.998C115.31 42.462 115.724 41.808 116.012 41.036C116.3 40.264 116.444 39.392 116.444 38.42C116.444 37.448 116.3 36.576 116.012 35.804C115.724 35.032 115.31 34.378 114.77 33.842C114.23 33.306 113.57 32.896 112.79 32.612C112.014 32.324 111.136 32.18 110.156 32.18H106.964V44.66H110.156ZM132.963 42.614C132.791 43.354 132.523 44.018 132.159 44.606C131.795 45.194 131.351 45.692 130.827 46.1C130.307 46.508 129.715 46.82 129.051 47.036C128.387 47.252 127.667 47.36 126.891 47.36C126.243 47.36 125.631 47.284 125.055 47.132C124.483 46.98 123.955 46.762 123.471 46.478C122.991 46.19 122.559 45.842 122.175 45.434C121.795 45.022 121.471 44.558 121.203 44.042C120.939 43.522 120.737 42.954 120.597 42.338C120.457 41.718 120.387 41.06 120.387 40.364C120.387 39.668 120.457 39.014 120.597 38.402C120.737 37.79 120.937 37.226 121.197 36.71C121.461 36.194 121.781 35.732 122.157 35.324C122.533 34.916 122.959 34.57 123.435 34.286C123.911 34.002 124.433 33.786 125.001 33.638C125.569 33.486 126.173 33.41 126.813 33.41C127.761 33.41 128.617 33.574 129.381 33.902C130.145 34.226 130.797 34.688 131.337 35.288C131.877 35.888 132.293 36.614 132.585 37.466C132.877 38.318 133.023 39.272 133.023 40.328C133.023 40.48 133.019 40.63 133.011 40.778C133.007 40.926 132.997 41.09 132.981 41.27H122.865C122.937 41.874 123.081 42.418 123.297 42.902C123.517 43.382 123.801 43.79 124.149 44.126C124.501 44.462 124.913 44.72 125.385 44.9C125.857 45.076 126.379 45.164 126.951 45.164C127.831 45.164 128.567 44.952 129.159 44.528C129.751 44.1 130.209 43.462 130.533 42.614H132.963ZM130.509 39.17C130.429 38.594 130.289 38.086 130.089 37.646C129.889 37.202 129.633 36.83 129.321 36.53C129.009 36.226 128.643 35.996 128.223 35.84C127.807 35.684 127.341 35.606 126.825 35.606C126.297 35.606 125.813 35.688 125.373 35.852C124.933 36.012 124.545 36.246 124.209 36.554C123.877 36.858 123.601 37.232 123.381 37.676C123.161 38.116 123.005 38.614 122.913 39.17H130.509ZM137.062 47H134.632V33.77H137.062V37.454C137.218 36.822 137.434 36.256 137.71 35.756C137.99 35.256 138.322 34.832 138.706 34.484C139.09 34.136 139.522 33.87 140.002 33.686C140.482 33.502 141.002 33.41 141.562 33.41C142.154 33.41 142.692 33.514 143.176 33.722C143.664 33.926 144.092 34.224 144.46 34.616C144.832 35.008 145.138 35.488 145.378 36.056C145.622 36.62 145.796 37.26 145.9 37.976C146.028 37.268 146.228 36.632 146.5 36.068C146.772 35.504 147.104 35.026 147.496 34.634C147.892 34.238 148.344 33.936 148.852 33.728C149.36 33.516 149.912 33.41 150.508 33.41C151.204 33.41 151.826 33.552 152.374 33.836C152.926 34.12 153.392 34.53 153.772 35.066C154.156 35.598 154.448 36.248 154.648 37.016C154.852 37.78 154.954 38.642 154.954 39.602V47H152.524V39.602C152.524 38.274 152.272 37.276 151.768 36.608C151.268 35.94 150.51 35.606 149.494 35.606C148.95 35.606 148.462 35.702 148.03 35.894C147.598 36.082 147.232 36.358 146.932 36.722C146.632 37.082 146.402 37.526 146.242 38.054C146.086 38.578 146.008 39.174 146.008 39.842V47H143.578V39.602C143.578 38.274 143.326 37.276 142.822 36.608C142.322 35.94 141.564 35.606 140.548 35.606C140.004 35.606 139.516 35.702 139.084 35.894C138.652 36.082 138.286 36.358 137.986 36.722C137.686 37.082 137.456 37.526 137.296 38.054C137.14 38.578 137.062 39.174 137.062 39.842V47ZM156.504 40.382C156.504 39.686 156.574 39.03 156.714 38.414C156.854 37.798 157.056 37.232 157.32 36.716C157.584 36.2 157.906 35.738 158.286 35.33C158.666 34.918 159.094 34.57 159.57 34.286C160.05 34.002 160.576 33.786 161.148 33.638C161.72 33.486 162.328 33.41 162.972 33.41C163.62 33.41 164.228 33.486 164.796 33.638C165.368 33.786 165.892 34.002 166.368 34.286C166.848 34.57 167.278 34.918 167.658 35.33C168.038 35.738 168.36 36.2 168.624 36.716C168.888 37.232 169.09 37.798 169.23 38.414C169.37 39.03 169.44 39.686 169.44 40.382C169.44 41.078 169.37 41.734 169.23 42.35C169.09 42.966 168.888 43.534 168.624 44.054C168.36 44.57 168.038 45.032 167.658 45.44C167.278 45.848 166.848 46.196 166.368 46.484C165.892 46.768 165.368 46.984 164.796 47.132C164.228 47.284 163.62 47.36 162.972 47.36C162.328 47.36 161.72 47.284 161.148 47.132C160.576 46.984 160.05 46.768 159.57 46.484C159.094 46.196 158.666 45.848 158.286 45.44C157.906 45.032 157.584 44.57 157.32 44.054C157.056 43.534 156.854 42.966 156.714 42.35C156.574 41.734 156.504 41.078 156.504 40.382ZM158.934 40.382C158.934 41.122 159.026 41.788 159.21 42.38C159.398 42.968 159.666 43.47 160.014 43.886C160.366 44.298 160.792 44.614 161.292 44.834C161.792 45.054 162.354 45.164 162.978 45.164C163.602 45.164 164.162 45.054 164.658 44.834C165.158 44.614 165.582 44.298 165.93 43.886C166.278 43.47 166.544 42.968 166.728 42.38C166.916 41.788 167.01 41.122 167.01 40.382C167.01 39.642 166.916 38.978 166.728 38.39C166.544 37.798 166.278 37.296 165.93 36.884C165.582 36.472 165.158 36.156 164.658 35.936C164.162 35.716 163.602 35.606 162.978 35.606C162.354 35.606 161.792 35.716 161.292 35.936C160.792 36.156 160.366 36.472 160.014 36.884C159.666 37.296 159.398 37.798 159.21 38.39C159.026 38.978 158.934 39.642 158.934 40.382Z" fill="#FC92C2"/>
</svg>
