<svg width="126" height="48" viewBox="0 0 126 48" fill="none" xmlns="http://www.w3.org/2000/svg">
<path fill-rule="evenodd" clip-rule="evenodd" d="M0.721346 36.1979C0.282079 36.4002 0 36.8444 0 37.3338V46.7525C0 47.4415 0.550579 48 1.22975 48H36.7703C37.4494 48 38 47.4415 38 46.7525V19.3799C38 18.6909 37.4494 18.1323 36.7703 18.1323H32.7688C32.0896 18.1323 31.539 18.6909 31.539 19.3799V25.5135C31.539 26.0029 31.2569 26.4471 30.8177 26.6495L0.721346 36.1979Z" fill="#FF4E9F" fill-opacity="0.4"/>
<path fill-rule="evenodd" clip-rule="evenodd" d="M37.3062 12.2856C37.7142 12.0713 37.9705 11.644 37.9705 11.1778L37.9705 1.24747C37.9705 0.558481 37.4199 -5.72693e-05 36.7407 -5.73295e-05L1.45996 -5.85511e-05C0.780792 -5.86113e-05 3.47174e-06 0.55848 3.4798e-06 1.24747L3.8001e-06 28.6199C3.80816e-06 29.3089 0.780792 29.8674 1.45996 29.8674L5.46146 29.8674C6.14064 29.8674 6.69121 29.3089 6.69121 28.6199L6.69121 24.3426C6.69121 23.8765 6.94743 23.4492 7.3555 23.2348L37.3062 12.2856Z" fill="#FF4E9F"/>
<path d="M109.917 39.7978C109.917 38.5712 110.102 37.4589 110.47 36.4608C110.843 35.4628 111.368 34.6093 112.044 33.9004C112.72 33.1868 113.53 32.6365 114.472 32.2494C115.414 31.8623 116.456 31.6687 117.599 31.6687C118.742 31.6687 119.784 31.8623 120.726 32.2494C121.668 32.6365 122.477 33.1868 123.154 33.9004C123.83 34.6093 124.352 35.4628 124.721 36.4608C125.094 37.4589 125.28 38.5712 125.28 39.7978C125.28 40.614 125.196 41.3812 125.028 42.0995C124.861 42.8177 124.618 43.48 124.301 44.0863C123.988 44.6879 123.604 45.2266 123.147 45.7023C122.694 46.178 122.183 46.5815 121.614 46.9126C121.045 47.2437 120.423 47.4956 119.747 47.6681C119.075 47.8454 118.359 47.934 117.599 47.934C116.839 47.934 116.12 47.8454 115.444 47.6681C114.768 47.4956 114.145 47.2437 113.576 46.9126C113.007 46.5815 112.497 46.178 112.044 45.7023C111.592 45.2266 111.207 44.6879 110.89 44.0863C110.577 43.48 110.337 42.8177 110.169 42.0995C110.001 41.3812 109.917 40.614 109.917 39.7978ZM113.443 39.7978C113.443 40.586 113.539 41.2926 113.73 41.9176C113.921 42.5379 114.194 43.0649 114.549 43.4986C114.908 43.9277 115.344 44.2565 115.857 44.485C116.375 44.7136 116.958 44.8278 117.606 44.8278C118.254 44.8278 118.835 44.7136 119.348 44.485C119.861 44.2565 120.295 43.9277 120.649 43.4986C121.008 43.0649 121.281 42.5379 121.468 41.9176C121.659 41.2926 121.754 40.586 121.754 39.7978C121.754 39.0096 121.659 38.3054 121.468 37.6851C121.281 37.0601 121.008 36.5331 120.649 36.104C120.295 35.675 119.861 35.3462 119.348 35.1176C118.835 34.8891 118.254 34.7748 117.606 34.7748C116.958 34.7748 116.375 34.8891 115.857 35.1176C115.344 35.3462 114.908 35.6773 114.549 36.111C114.194 36.5401 113.921 37.0648 113.73 37.6851C113.539 38.3054 113.443 39.0096 113.443 39.7978Z" fill="#FC92C2"/>
<path d="M87.886 47.5142H84.3741V32.0884H87.886V36.5098C88.0539 35.7403 88.2941 35.057 88.6066 34.46C88.9191 33.8584 89.2945 33.3524 89.7329 32.9419C90.176 32.5269 90.6774 32.212 91.237 31.9975C91.8014 31.7783 92.4147 31.6687 93.0769 31.6687C93.7719 31.6687 94.3968 31.7876 94.9518 32.0255C95.5115 32.2587 95.9989 32.6038 96.4139 33.0609C96.829 33.5179 97.1695 34.0799 97.4353 34.7469C97.7012 35.4091 97.8854 36.1717 97.988 37.0345C98.1326 36.1857 98.3588 35.4301 98.6666 34.7678C98.9744 34.1009 99.3522 33.5389 99.7999 33.0819C100.252 32.6201 100.772 32.2703 101.36 32.0325C101.948 31.79 102.591 31.6687 103.291 31.6687C104.093 31.6687 104.804 31.8273 105.425 32.1444C106.05 32.4569 106.574 32.914 106.999 33.5156C107.428 34.1172 107.754 34.8565 107.978 35.7333C108.202 36.6054 108.314 37.6012 108.314 38.7205V47.5142H104.802V39.0703C104.802 36.202 103.755 34.7678 101.661 34.7678C101.101 34.7678 100.6 34.8681 100.157 35.0687C99.7136 35.2692 99.3405 35.563 99.0374 35.9501C98.7342 36.3326 98.501 36.806 98.3378 37.3703C98.1792 37.93 98.0999 38.5712 98.0999 39.2941V47.5142H94.588V39.0703C94.588 36.202 93.541 34.7678 91.4469 34.7678C90.8873 34.7678 90.3859 34.8681 89.9428 35.0687C89.4997 35.2692 89.1266 35.563 88.8235 35.9501C88.5203 36.3326 88.2871 36.806 88.1239 37.3703C87.9653 37.93 87.886 38.5712 87.886 39.2941V47.5142Z" fill="#FC92C2"/>
<path d="M82.6257 42.3443C82.4205 43.2165 82.101 43.9977 81.6673 44.6879C81.2336 45.3782 80.7042 45.9635 80.0793 46.4439C79.4543 46.9242 78.7454 47.2927 77.9525 47.5492C77.1597 47.8057 76.3015 47.934 75.3781 47.934C74.2307 47.934 73.1837 47.7381 72.2369 47.3463C71.2948 46.9546 70.488 46.4019 69.8164 45.6883C69.1448 44.9701 68.6224 44.1119 68.2493 43.1139C67.8809 42.1111 67.6967 41.0011 67.6967 39.7838C67.6967 38.9723 67.7783 38.2098 67.9415 37.4962C68.1094 36.7826 68.3473 36.125 68.6551 35.5234C68.9676 34.9218 69.3453 34.3831 69.7884 33.9074C70.2361 33.4316 70.7422 33.0282 71.3065 32.6971C71.8708 32.3613 72.4865 32.1071 73.1534 31.9345C73.825 31.7573 74.5386 31.6687 75.2941 31.6687C76.045 31.6687 76.7469 31.755 77.3999 31.9275C78.0575 32.1001 78.6591 32.3496 79.2048 32.6761C79.7551 33.0026 80.2448 33.4013 80.6739 33.8724C81.1076 34.3434 81.4738 34.8774 81.7722 35.4744C82.0707 36.0714 82.2993 36.729 82.4578 37.4472C82.6164 38.1655 82.6957 38.9327 82.6957 39.7489C82.6957 39.9308 82.691 40.1127 82.6817 40.2945C82.677 40.4764 82.6654 40.6677 82.6467 40.8682H71.1666C71.2412 41.5118 71.3928 42.0878 71.6213 42.5962C71.8545 43.0999 72.1553 43.5289 72.5238 43.8834C72.8922 44.2379 73.3236 44.5084 73.818 44.6949C74.317 44.8815 74.8697 44.9747 75.476 44.9747C76.3995 44.9747 77.1713 44.7555 77.7916 44.3171C78.4119 43.8787 78.8946 43.2211 79.2398 42.3443H82.6257ZM79.2188 38.3497C79.0322 37.1231 78.6078 36.1927 77.9455 35.5584C77.2879 34.9194 76.4111 34.5999 75.3151 34.5999C74.7554 34.5999 74.2447 34.6839 73.783 34.8518C73.3213 35.0197 72.9155 35.2646 72.5657 35.5864C72.2206 35.9082 71.9338 36.3023 71.7053 36.7687C71.4767 37.2304 71.3135 37.7574 71.2156 38.3497H79.2188Z" fill="#FC92C2"/>
<path d="M66.0205 26.8066V47.5143H62.5086V42.7991C62.322 43.5966 62.0608 44.3148 61.725 44.9538C61.3892 45.5881 60.9881 46.1268 60.5217 46.5698C60.06 47.0082 59.5353 47.344 58.9477 47.5772C58.3647 47.8151 57.7327 47.934 57.0518 47.934C56.4315 47.934 55.8415 47.8431 55.2819 47.6612C54.7269 47.4793 54.2115 47.2204 53.7358 46.8846C53.2647 46.5442 52.8403 46.1338 52.4626 45.6534C52.0848 45.1683 51.763 44.625 51.4971 44.0233C51.2313 43.4217 51.0261 42.7664 50.8815 42.0575C50.7416 41.344 50.6716 40.5907 50.6716 39.7979C50.6716 39.005 50.7416 38.2541 50.8815 37.5452C51.0261 36.8316 51.2313 36.174 51.4971 35.5724C51.763 34.9708 52.0848 34.4297 52.4626 33.9494C52.8403 33.4643 53.2647 33.0539 53.7358 32.7181C54.2115 32.3823 54.7269 32.1235 55.2819 31.9416C55.8415 31.7597 56.4315 31.6687 57.0518 31.6687C57.7374 31.6687 58.3717 31.7877 58.9547 32.0255C59.5377 32.2587 60.0624 32.5968 60.5287 33.0399C60.9951 33.4783 61.3939 34.0147 61.725 34.649C62.0608 35.2832 62.322 36.0015 62.5086 36.8037V26.8066H66.0205ZM62.5086 39.7979C62.5086 38.9957 62.4129 38.2798 62.2217 37.6502C62.0352 37.0205 61.7623 36.4889 61.4032 36.0551C61.0441 35.6214 60.6034 35.2902 60.081 35.0617C59.5633 34.8332 58.9757 34.7189 58.3181 34.7189C56.9749 34.7189 55.9511 35.1503 55.2469 36.0131C54.5473 36.876 54.1975 38.1375 54.1975 39.7979C54.1975 40.628 54.2861 41.3603 54.4634 41.9946C54.6406 42.6242 54.9018 43.1535 55.2469 43.5826C55.5967 44.0117 56.0281 44.3358 56.5411 44.555C57.0541 44.7742 57.6465 44.8838 58.3181 44.8838C58.9757 44.8838 59.5633 44.7696 60.081 44.541C60.6034 44.3125 61.0441 43.9814 61.4032 43.5476C61.7623 43.1092 62.0352 42.5752 62.2217 41.9456C62.4129 41.316 62.5086 40.6001 62.5086 39.7979Z" fill="#FC92C2"/>
<path d="M105.051 0.485596L94.8515 10.6995V10.5806L105.765 20.4936H100.609L91.7034 12.2945L91.7594 12.2666V20.4936H88.0796V0.485596H91.7594V9.39827L91.7034 9.37028L100.273 0.485596H105.051Z" fill="#FF4E9F"/>
<path d="M69.005 20.4936V0.485596H75.9449C76.9616 0.485596 77.92 0.592865 78.8201 0.807403C79.7203 1.02194 80.5458 1.33209 81.2967 1.73785C82.0522 2.1436 82.7308 2.63798 83.3324 3.22096C83.9341 3.80395 84.4424 4.46622 84.8575 5.20777C85.2726 5.94933 85.5898 6.76318 85.809 7.64931C86.0328 8.53545 86.1448 9.48222 86.1448 10.4896C86.1448 11.497 86.0328 12.4438 85.809 13.3299C85.5898 14.2161 85.2726 15.0299 84.8575 15.7715C84.4424 16.513 83.9341 17.1753 83.3324 17.7583C82.7308 18.3413 82.0522 18.8356 81.2967 19.2414C80.5458 19.6471 79.7203 19.9573 78.8201 20.1718C77.92 20.3864 76.9616 20.4936 75.9449 20.4936H69.005ZM72.6288 17.7373L72.1251 17.2336H75.8959C76.5815 17.2336 77.2181 17.166 77.8057 17.0307C78.3981 16.8955 78.9367 16.6972 79.4218 16.4361C79.9068 16.1702 80.3382 15.8461 80.716 15.4636C81.0938 15.0765 81.4109 14.6335 81.6674 14.1344C81.924 13.6354 82.1175 13.0804 82.2481 12.4694C82.3833 11.8585 82.451 11.1985 82.451 10.4896C82.451 9.78071 82.3833 9.12077 82.2481 8.5098C82.1175 7.89883 81.924 7.34383 81.6674 6.84479C81.4109 6.34576 81.0938 5.90502 80.716 5.52258C80.3382 5.13548 79.9068 4.81134 79.4218 4.55017C78.9367 4.28432 78.3981 4.08378 77.8057 3.94853C77.2181 3.81327 76.5815 3.74565 75.8959 3.74565H72.1251L72.6288 3.24195V17.7373Z" fill="#FF4E9F"/>
<path d="M58.5769 0.065918C59.8175 0.065918 60.9368 0.217494 61.9349 0.520646C62.9329 0.823798 63.7841 1.25987 64.4883 1.82886C65.1926 2.39319 65.7336 3.08345 66.1114 3.89962C66.4938 4.7158 66.685 5.63459 66.685 6.65598H63.1312C63.1312 6.1243 63.0192 5.64625 62.7954 5.22184C62.5761 4.79276 62.2637 4.42898 61.8579 4.13049C61.4568 3.82734 60.9741 3.59647 60.4098 3.4379C59.8454 3.27467 59.2205 3.19305 58.5349 3.19305C58.1525 3.19305 57.7747 3.22103 57.4016 3.277C57.0285 3.3283 56.6717 3.40759 56.3312 3.51486C55.9908 3.61746 55.6759 3.75038 55.3868 3.91362C55.0976 4.07219 54.8481 4.26108 54.6382 4.48028C54.4284 4.69482 54.2628 4.93967 54.1415 5.21484C54.0203 5.49001 53.9596 5.79316 53.9596 6.12429C53.9596 6.42278 54.0086 6.68396 54.1065 6.90783C54.2045 7.13169 54.3467 7.32524 54.5333 7.48848C54.7245 7.65172 54.9577 7.79396 55.2329 7.91522C55.5127 8.03182 55.8322 8.13443 56.1913 8.22304C56.5504 8.30699 56.9468 8.38628 57.3806 8.4609C57.8143 8.53552 58.2877 8.61014 58.8007 8.68476L59.7242 8.82468C60.2885 8.90397 60.8692 8.99724 61.4661 9.10451C62.0631 9.20712 62.6438 9.3447 63.2081 9.51727C63.7771 9.68983 64.3134 9.90903 64.8171 10.1749C65.3255 10.4361 65.7686 10.7672 66.1463 11.1683C66.5288 11.5694 66.8296 12.0521 67.0488 12.6164C67.2727 13.1807 67.3846 13.85 67.3846 14.6242C67.3846 15.6689 67.1771 16.5854 66.762 17.3736C66.3469 18.1571 65.7616 18.8124 65.006 19.3394C64.2551 19.8617 63.3504 20.2535 62.2917 20.5147C61.2376 20.7805 60.0693 20.9135 58.7867 20.9135C57.3969 20.9135 56.1563 20.7619 55.065 20.4587C53.9783 20.1556 53.0595 19.7148 52.3086 19.1365C51.5577 18.5535 50.9841 17.8423 50.5876 17.0028C50.1959 16.1633 50 15.2095 50 14.1415H53.5539C53.5539 14.7105 53.6751 15.2212 53.9177 15.6736C54.1602 16.126 54.5053 16.5084 54.953 16.8209C55.4008 17.1334 55.9464 17.3736 56.5901 17.5415C57.2337 17.7047 57.9542 17.7863 58.7518 17.7863C59.442 17.7863 60.0903 17.7234 60.6966 17.5974C61.3029 17.4715 61.8323 17.2803 62.2847 17.0238C62.7371 16.7626 63.0962 16.4361 63.362 16.0444C63.6279 15.6479 63.7608 15.1792 63.7608 14.6382C63.7608 14.3071 63.7095 14.0226 63.6069 13.7847C63.5089 13.5422 63.3643 13.3323 63.1731 13.1551C62.9866 12.9779 62.758 12.8286 62.4875 12.7074C62.2217 12.5861 61.9162 12.4835 61.5711 12.3995C61.2306 12.3109 60.8552 12.234 60.4448 12.1687C60.0343 12.0987 59.5983 12.0288 59.1365 11.9588L57.9542 11.7839C57.3899 11.7046 56.8116 11.616 56.2193 11.5181C55.627 11.4155 55.0486 11.2849 54.4843 11.1263C53.92 10.9631 53.386 10.7579 52.8823 10.5107C52.3832 10.2588 51.9448 9.94401 51.5671 9.56624C51.1893 9.1838 50.8885 8.72674 50.6646 8.19506C50.4454 7.65871 50.3358 7.02209 50.3358 6.2852C50.3358 5.60427 50.4337 4.97698 50.6296 4.40332C50.8255 3.82967 51.1007 3.31431 51.4551 2.85725C51.8096 2.39552 52.2363 1.9921 52.7354 1.64697C53.2344 1.29718 53.7894 1.00569 54.4004 0.772494C55.0113 0.539301 55.6689 0.364406 56.3732 0.247809C57.0774 0.126548 57.812 0.065918 58.5769 0.065918Z" fill="#FF4E9F"/>
</svg>
