<svg width="778" height="751" viewBox="0 0 778 751" fill="none" xmlns="http://www.w3.org/2000/svg">
<rect width="777.913" height="749.796" transform="translate(0 0.447266)" fill="#FF4E9F"/>
<path fill-rule="evenodd" clip-rule="evenodd" d="M189.097 498.74C175.999 502.28 166.901 514.163 166.901 527.732V568.051C166.901 584.637 180.347 598.083 196.933 598.083H581.341C597.927 598.083 611.373 584.637 611.373 568.051V183.643C611.373 167.057 597.927 153.611 581.341 153.611H541.127C524.54 153.611 511.095 167.057 511.095 183.643V388.721C511.095 402.29 501.997 414.173 488.898 417.713L189.097 498.74Z" fill="white" fill-opacity="0.6"/>
<path fill-rule="evenodd" clip-rule="evenodd" d="M593.589 265.277C604.148 262.095 611.375 252.369 611.375 241.341L611.375 178.611C611.375 164.804 600.182 153.611 586.375 153.611L191.903 153.611C178.096 153.611 166.903 164.804 166.903 178.611L166.903 573.083C166.903 586.89 178.096 598.083 191.903 598.083L242.181 598.083C255.988 598.083 267.181 586.89 267.181 573.083L267.181 382.238C267.181 371.21 274.407 361.484 284.966 358.302L593.589 265.277Z" fill="white"/>
</svg>
