<svg viewBox="0 0 33 33" fill="none" xmlns="http://www.w3.org/2000/svg">
<path d="M32.25 16.5C32.25 7.80152 25.1985 0.75 16.5 0.75V2.25C24.3701 2.25 30.75 8.62994 30.75 16.5H32.25ZM16.5 0.75C7.80152 0.75 0.75 7.80152 0.75 16.5H2.25C2.25 8.62994 8.62994 2.25 16.5 2.25V0.75ZM0.75 16.5C0.75 25.1985 7.80152 32.25 16.5 32.25V30.75C8.62994 30.75 2.25 24.3701 2.25 16.5H0.75ZM16.5 32.25C25.1985 32.25 32.25 25.1985 32.25 16.5H30.75C30.75 24.3701 24.3701 30.75 16.5 30.75V32.25Z" fill="#1D2A31"/>
<path d="M20.7031 19.4419C20.9472 19.1979 20.9472 18.8021 20.7031 18.5581C20.4591 18.314 20.0633 18.314 19.8193 18.5581L20.7031 19.4419ZM16.4966 22.7646L16.0546 23.2066C16.1718 23.3238 16.3308 23.3896 16.4966 23.3896C16.6623 23.3896 16.8213 23.3238 16.9385 23.2066L16.4966 22.7646ZM13.1739 18.5581C12.9298 18.314 12.5341 18.314 12.29 18.5581C12.0459 18.8021 12.0459 19.1979 12.29 19.4419L13.1739 18.5581ZM17.1216 9.99994C17.1216 9.65476 16.8417 9.37494 16.4966 9.37494C16.1514 9.37494 15.8716 9.65476 15.8716 9.99994L17.1216 9.99994ZM19.8193 18.5581L16.0546 22.3227L16.9385 23.2066L20.7031 19.4419L19.8193 18.5581ZM16.9385 22.3227L13.1739 18.5581L12.29 19.4419L16.0546 23.2066L16.9385 22.3227ZM15.8716 9.99994L15.8716 22.7646L17.1216 22.7646L17.1216 9.99994L15.8716 9.99994Z" fill="#1D2A31"/>
</svg>
