<svg width="26" height="30" viewBox="0 0 26 30" fill="none" xmlns="http://www.w3.org/2000/svg">
<path d="M6.33333 4.33301L6.6 4.33301C8.84021 4.33301 9.96031 4.33301 10.816 4.76898C11.5686 5.15248 12.1805 5.7644 12.564 6.51704C13 7.37269 13 8.4928 13 10.733L13 19.2663C13 21.5066 13 22.6267 12.564 23.4823C12.1805 24.235 11.5686 24.8469 10.816 25.2304C9.96031 25.6663 8.84021 25.6663 6.6 25.6663L6.33333 25.6663M6.33333 4.33301C6.33333 2.86025 5.13942 1.66634 3.66666 1.66634C2.1939 1.66634 0.999997 2.86025 0.999997 4.33301C0.999997 5.80577 2.1939 6.99968 3.66666 6.99968C5.13942 6.99968 6.33333 5.80577 6.33333 4.33301ZM6.33333 25.6663C6.33333 24.1936 5.13942 22.9997 3.66667 22.9997C2.19391 22.9997 0.999999 24.1936 0.999999 25.6663C0.999999 27.1391 2.19391 28.333 3.66667 28.333C5.13943 28.333 6.33333 27.1391 6.33333 25.6663ZM19.6667 14.9997L6.33333 14.9997M19.6667 14.9997C19.6667 13.5269 20.8606 12.333 22.3333 12.333C23.8061 12.333 25 13.5269 25 14.9997C25 16.4724 23.8061 17.6663 22.3333 17.6663C20.8606 17.6663 19.6667 16.4724 19.6667 14.9997ZM6.33333 14.9997C6.33333 13.5269 5.13942 12.333 3.66666 12.333C2.19391 12.333 0.999998 13.5269 0.999998 14.9997C0.999998 16.4724 2.19391 17.6663 3.66667 17.6663C5.13942 17.6663 6.33333 16.4724 6.33333 14.9997Z" stroke-width="2" stroke-linecap="round" stroke-linejoin="round"/>
</svg>
