<svg width="30" height="26" viewBox="0 0 30 26" fill="none" xmlns="http://www.w3.org/2000/svg">
<path d="M18 10C19.3978 10 20.0967 10 20.6481 9.77164C21.3831 9.46716 21.9672 8.88313 22.2716 8.14805C22.5 7.59674 22.5 6.89782 22.5 5.5C22.5 4.10218 22.5 3.40326 22.2716 2.85195C21.9672 2.11687 21.3831 1.53284 20.6481 1.22836C20.0967 1 19.3978 1 18 1L6 1C4.60218 1 3.90326 1 3.35195 1.22836C2.61687 1.53284 2.03284 2.11687 1.72836 2.85195C1.5 3.40326 1.5 4.10218 1.5 5.5C1.5 6.89782 1.5 7.59674 1.72836 8.14805C2.03284 8.88313 2.61687 9.46716 3.35195 9.77164C3.90326 10 4.60218 10 6 10L18 10Z"  stroke-width="2" stroke-linecap="round" stroke-linejoin="round"/>
<path d="M24 25C25.3978 25 26.0967 25 26.6481 24.7716C27.3831 24.4672 27.9672 23.8831 28.2716 23.1481C28.5 22.5967 28.5 21.8978 28.5 20.5C28.5 19.1022 28.5 18.4033 28.2716 17.852C27.9672 17.1169 27.3831 16.5328 26.6481 16.2284C26.0967 16 25.3978 16 24 16H6C4.60218 16 3.90326 16 3.35195 16.2284C2.61687 16.5328 2.03284 17.1169 1.72836 17.852C1.5 18.4033 1.5 19.1022 1.5 20.5C1.5 21.8978 1.5 22.5967 1.72836 23.148C2.03284 23.8831 2.61687 24.4672 3.35195 24.7716C3.90326 25 4.60218 25 6 25L24 25Z"  stroke-width="2" stroke-linecap="round" stroke-linejoin="round"/>
</svg>
