<svg width="24" height="24" viewBox="0 0 24 24" fill="none" xmlns="http://www.w3.org/2000/svg">
<path d="M1.99123 9.27888C1.72899 9.16955 1.55964 9.121 1.40374 8.96531C1.24801 8.80961 1.16049 8.59847 1.16049 8.3783C1.16049 8.15812 1.24801 7.94696 1.40374 7.79128C1.55964 7.6356 1.61223 7.54233 1.99123 7.43114C2.3704 7.31996 20.8002 1.08951 20.8002 1.08951C21.0943 0.988897 21.4108 0.97274 21.7136 1.04288C22.0164 1.11302 22.2935 1.26665 22.5133 1.48629C22.7332 1.70594 22.8869 1.98281 22.9571 2.28541C23.0273 2.58802 23.0111 2.90422 22.9104 3.19812C22.9104 3.19812 16.5326 21.7572 16.4547 22.0095C16.3768 22.2618 16.2763 22.4407 16.1205 22.5965C15.9647 22.7522 15.7534 22.8396 15.5331 22.8396C15.3127 22.8396 15.1014 22.7522 14.9456 22.5965C14.7898 22.4407 14.7542 22.3525 14.6374 22.0095C14.5206 21.6664 11.3791 12.6121 11.3791 12.6121C11.3791 12.6121 2.25347 9.38821 1.99123 9.27888Z"  stroke-width="2" stroke-linecap="round" stroke-linejoin="round"/>
</svg>
