<svg width="30" height="30" viewBox="0 0 30 30" fill="none" xmlns="http://www.w3.org/2000/svg">
<path d="M15.0001 19C17.2092 19 19.0001 17.2091 19.0001 15C19.0001 12.7908 17.2092 11 15.0001 11C12.7909 11 11.0001 12.7908 11.0001 15C11.0001 17.2091 12.7909 19 15.0001 19Z" stroke="#13171A" stroke-width="2" stroke-linecap="round" stroke-linejoin="round"/>
<path d="M23.9698 18.6363C23.8084 19.0019 23.7603 19.4075 23.8316 19.8007C23.9029 20.1939 24.0903 20.5567 24.3698 20.8424L24.4425 20.9151C24.6679 21.1403 24.8467 21.4076 24.9687 21.7019C25.0907 21.9962 25.1535 22.3117 25.1535 22.6303C25.1535 22.9488 25.0907 23.2643 24.9687 23.5586C24.8467 23.8529 24.6679 24.1203 24.4425 24.3454C24.2174 24.5708 23.95 24.7496 23.6557 24.8716C23.3614 24.9936 23.0459 25.0564 22.7274 25.0564C22.4088 25.0564 22.0933 24.9936 21.799 24.8716C21.5047 24.7496 21.2373 24.5708 21.0122 24.3454L20.9395 24.2727C20.6538 23.9932 20.291 23.8058 19.8978 23.7345C19.5046 23.6632 19.099 23.7113 18.7334 23.8727C18.3749 24.0263 18.0692 24.2815 17.8538 24.6067C17.6384 24.9319 17.5228 25.3129 17.5213 25.703V25.9091C17.5213 26.552 17.2659 27.1686 16.8112 27.6232C16.3566 28.0779 15.74 28.3333 15.0971 28.3333C14.4541 28.3333 13.8375 28.0779 13.3829 27.6232C12.9282 27.1686 12.6728 26.552 12.6728 25.9091V25.8C12.6634 25.3988 12.5336 25.0097 12.3001 24.6832C12.0666 24.3568 11.7404 24.1082 11.3637 23.9697C10.9981 23.8083 10.5926 23.7602 10.1994 23.8315C9.80616 23.9028 9.44333 24.0902 9.15766 24.3697L9.08493 24.4424C8.85978 24.6678 8.59242 24.8466 8.29812 24.9686C8.00382 25.0906 7.68836 25.1534 7.36978 25.1534C7.0512 25.1534 6.73574 25.0906 6.44144 24.9686C6.14714 24.8466 5.87977 24.6678 5.65463 24.4424C5.42923 24.2172 5.25042 23.9499 5.12842 23.6556C5.00642 23.3613 4.94363 23.0458 4.94363 22.7272C4.94363 22.4087 5.00642 22.0932 5.12842 21.7989C5.25042 21.5046 5.42923 21.2372 5.65463 21.0121L5.72735 20.9394C6.00679 20.6537 6.19425 20.2908 6.26554 19.8976C6.33684 19.5044 6.28871 19.0989 6.12735 18.7333C5.9737 18.3748 5.71857 18.069 5.39337 17.8537C5.06817 17.6383 4.6871 17.5227 4.29705 17.5212H4.09099C3.44804 17.5212 2.83143 17.2658 2.37679 16.8111C1.92216 16.3565 1.66675 15.7399 1.66675 15.0969C1.66675 14.454 1.92216 13.8374 2.37679 13.3827C2.83143 12.9281 3.44804 12.6727 4.09099 12.6727H4.20008C4.60129 12.6633 4.99039 12.5334 5.31681 12.3C5.64323 12.0665 5.89186 11.7402 6.03038 11.3636C6.19174 10.998 6.23987 10.5925 6.16857 10.1992C6.09728 9.80604 5.90982 9.44321 5.63038 9.15754L5.55766 9.08481C5.33226 8.85966 5.15345 8.5923 5.03145 8.298C4.90945 8.0037 4.84666 7.68824 4.84666 7.36966C4.84666 7.05107 4.90945 6.73561 5.03145 6.44132C5.15345 6.14702 5.33226 5.87965 5.55766 5.6545C5.7828 5.42911 6.05017 5.2503 6.34447 5.1283C6.63877 5.0063 6.95423 4.94351 7.27281 4.94351C7.59139 4.94351 7.90685 5.0063 8.20115 5.1283C8.49545 5.2503 8.76281 5.42911 8.98796 5.6545L9.06069 5.72723C9.34636 6.00667 9.70919 6.19412 10.1024 6.26542C10.4956 6.33672 10.9012 6.28858 11.2667 6.12723H11.3637C11.7222 5.97358 12.028 5.71845 12.2433 5.39325C12.4587 5.06805 12.5743 4.68697 12.5758 4.29693V4.09087C12.5758 3.44792 12.8313 2.8313 13.2859 2.37667C13.7405 1.92204 14.3571 1.66663 15.0001 1.66663C15.643 1.66663 16.2596 1.92204 16.7143 2.37667C17.1689 2.8313 17.4243 3.44792 17.4243 4.09087V4.19996C17.4259 4.59 17.5415 4.97108 17.7568 5.29628C17.9722 5.62148 18.2779 5.87661 18.6364 6.03026C19.002 6.19161 19.4076 6.23975 19.8008 6.16845C20.194 6.09715 20.5568 5.9097 20.8425 5.63026L20.9152 5.55754C21.1404 5.33214 21.4077 5.15333 21.702 5.03133C21.9963 4.90933 22.3118 4.84654 22.6304 4.84654C22.949 4.84654 23.2644 4.90933 23.5587 5.03133C23.853 5.15333 24.1204 5.33214 24.3455 5.55754C24.5709 5.78268 24.7497 6.05005 24.8717 6.34435C24.9937 6.63865 25.0565 6.9541 25.0565 7.27269C25.0565 7.59127 24.9937 7.90673 24.8717 8.20103C24.7497 8.49533 24.5709 8.76269 24.3455 8.98784L24.2728 9.06057C23.9934 9.34624 23.8059 9.70907 23.7346 10.1023C23.6633 10.4955 23.7115 10.901 23.8728 11.2666V11.3636C24.0265 11.7221 24.2816 12.0279 24.6068 12.2432C24.932 12.4586 25.3131 12.5742 25.7031 12.5757H25.9092C26.5521 12.5757 27.1687 12.8311 27.6234 13.2858C28.078 13.7404 28.3334 14.357 28.3334 15C28.3334 15.6429 28.078 16.2595 27.6234 16.7142C27.1687 17.1688 26.5521 17.4242 25.9092 17.4242H25.8001C25.41 17.4258 25.029 17.5413 24.7038 17.7567C24.3786 17.9721 24.1234 18.2778 23.9698 18.6363Z" stroke="#13171A" stroke-width="2" stroke-linecap="round" stroke-linejoin="round"/>
</svg>
